<?xml version="1.0" encoding="iso-8859-1"?>
<!-- Generator: Adobe Illustrator 17.1.0, SVG Export Plug-In . SVG Version: 6.00 Build 0)  -->
<!DOCTYPE svg PUBLIC "-//W3C//DTD SVG 1.1//EN" "http://www.w3.org/Graphics/SVG/1.1/DTD/svg11.dtd">
<svg version="1.1" id="Capa_1" xmlns="http://www.w3.org/2000/svg" xmlns:xlink="http://www.w3.org/1999/xlink" x="0px" y="0px"
	 viewBox="0 0 184.615 184.615" style="enable-background:new 0 0 184.615 184.615;" xml:space="preserve">
<path fill="#fefefe" d="M169.045,15.57C159.005,5.53,145.656,0,131.458,0C117.259,0,103.91,5.53,93.87,15.57
	c-16.739,16.74-19.951,41.955-9.651,61.956c-2.983,3.414-2.811,9,0.078,14.182l-13.79,13.79l-3.076-3.076
	c-1.328-1.328-3.48-1.328-4.808,0L3.636,161.409c-4.848,4.848-4.848,12.708,0,17.556l2.015,2.015c4.848,4.848,12.708,4.848,17.556,0
	l58.988-58.988c1.328-1.328,1.328-3.48,0-4.808l-3.076-3.076l13.79-13.79c5.174,2.885,10.752,3.06,14.168,0.09
	c7.448,3.854,15.755,5.906,24.382,5.906c14.198,0,27.547-5.529,37.587-15.569s15.57-23.389,15.57-37.587
	S179.085,25.61,169.045,15.57z M161.975,83.674c-8.151,8.151-18.989,12.641-30.517,12.641c-11.528,0-22.366-4.489-30.518-12.641
	c-16.826-16.827-16.826-44.206,0-61.033C109.092,14.49,119.93,10,131.458,10c11.527,0,22.365,4.489,30.517,12.641
	s12.641,18.989,12.641,30.517C174.615,64.685,170.126,75.523,161.975,83.674z"/>
</svg>
